<svg xmlns="http://www.w3.org/2000/svg" viewBox="0 0 200 80" width="100%" height="100%">
  <g transform="translate(18, 14)">
    <!-- BRAC 4-petal Magenta Flower -->
    <g transform="translate(4, 4)">
      <path d="M18 18 C10 18 6 12 6 4 C14 4 18 10 18 18 Z" fill="#E11D48" />
      <path d="M22 18 C22 10 28 6 36 6 C36 14 30 18 22 18 Z" fill="#E11D48" />
      <path d="M22 22 C30 22 34 28 34 36 C26 36 22 30 22 22 Z" fill="#E11D48" />
      <path d="M18 22 C18 30 12 34 4 34 C4 26 10 22 18 22 Z" fill="#E11D48" />
    </g>
    
    <!-- brac Text -->
    <text x="56" y="34" font-family="system-ui, -apple-system, sans-serif" font-weight="900" font-size="36" fill="#E11D48" letter-spacing="-1">brac</text>
  </g>
</svg>
